<svg width="76" height="48" xmlns="http://www.w3.org/2000/svg" clip-rule="evenodd" xml:space="preserve" version="1.1">
 <g id="Layer_1">
  <title>Layer 1</title>
  <path id="svg_1" fill="rgb(72,72,72)" fill-rule="nonzero" d="m55.79,5.23c-6.47,0 -12.43,3.64 -18.19,10c-5.66,-6.46 -11.72,-10 -18.49,-10c-11.21,0 -19.39,8 -19.39,18.77c0,10.77 8.18,18.67 19.39,18.67c6.89,0 12.23,-3.23 18.19,-9.67c5.76,6.46 11.62,9.69 18.49,9.69c11.21,-0.02 19.39,-7.89 19.39,-18.69c0,-10.8 -8.18,-18.77 -19.39,-18.77zm-36.6,26.14c-4.75,0 -7.58,-3.13 -7.58,-7.27c0,-4.14 2.83,-7.36 7.58,-7.36c4,0 7.27,3.22 10.81,7.56c-3.34,4.04 -6.87,7.07 -10.81,7.07zm36.26,0c-3.94,0 -7.27,-3.13 -10.81,-7.27c3.64,-4.34 6.77,-7.36 10.81,-7.36c4.75,0 7.55,3.26 7.55,7.36c0,4.1 -2.8,7.27 -7.55,7.27z"/>
  <path id="svg_2" fill="rgb(32,167,201)" fill-rule="nonzero" d="m45.74,40l7.54,-9c-3,-0.9 -5.77,-3.6 -8.64,-6.95l-7.34,8.95c2.403,2.788 5.256,5.154 8.44,7z"/>
  <path id="svg_12" fill="rgb(32,167,201)" fill-rule="nonzero" d="m37.6,15.22c-2.387,-2.828 -5.222,-5.247 -8.39,-7.16l-7.55,9.1c2.87,1 5.41,3.58 8.11,6.87l0.3,0.21l7.53,-9.02z"/>
 </g>
</svg>