<svg width="939.81117" height="456.60073" xmlns="http://www.w3.org/2000/svg" data-name="Layer 1">
 <g>
  <title>Layer 1</title>
  <ellipse id="svg_1" fill="#f0f0f0" ry="7" rx="135" cy="304.60073" cx="564.24916"/>
  <ellipse id="svg_2" fill="#f0f0f0" ry="7" rx="45" cy="449.60073" cx="147.24916"/>
  <rect id="svg_3" transform="rotate(-84.1848 318.135 753.223)" fill="#e6e6e6" height="98.99767" width="5.13321" y="943.08692" x="1079.31102"/>
  <circle id="svg_4" fill="#e6e6e6" r="9.53311" cy="9.53384" cx="557.44851"/>
  <rect id="svg_5" transform="rotate(-84.1848 290.279 778.386)" fill="#e4e4e4" height="98.99767" width="5.13321" y="996.24995" x="1051.4551"/>
  <circle id="svg_6" fill="#e4e4e4" r="9.53311" cy="37.53384" cx="557.44851"/>
  <rect id="svg_7" transform="rotate(-84.1848 262.423 803.549)" fill="#f9a826" height="98.99767" width="5.13321" y="1049.41297" x="1023.5992"/>
  <circle id="svg_8" fill="#f9a826" r="9.53311" cy="65.53384" cx="557.44851"/>
  <polygon id="svg_9" fill="#e4e4e4" points="19.924 166.829 74.249 125.601 73.806 205.874 22.589 248.125 19.924 166.829"/>
  <polygon id="svg_10" fill="#f9a826" points="256.922 16.745 362.661 1.81 364.249 93.905 257.852 111.524 256.922 16.745"/>
  <polygon id="svg_11" fill="#f9a826" points="870.249 173.491 870.249 254.894 922.822 305.421 925.276 222.902 870.249 173.491"/>
  <g data-name="Group 123" id="f1012d9b-0a3f-4e62-89ec-f75ec41b1f18">
   <path fill="#f9a826" d="m870.56116,100.37714l0,12.01l36.63,29.76l1.72,-10.3l-38.35,-31.47z" data-name="Path 1733" id="f1db56c4-d40a-4b97-925d-862f8518bc4b"/>
  </g>
  <path fill="#e6e6e6" d="m871.14118,120.97715l-0.58,12.02l69.25,65.23l-1.14,-13.73l-67.53,-63.52z" data-name="Path 1735" id="a03c9d69-04e1-44a9-b627-9efaf6e70c5d"/>
  <path fill="#e6e6e6" d="m870.56116,143.29716l0,11.44l69.25,66.39l0,-14.88l-69.25,-62.95z" data-name="Path 1736" id="f49e7db1-285b-4bca-9b97-2387afac8e22"/>
  <polygon id="svg_12" fill="#9e616a" points="149.849 441.23 144.362 441.23 141.751 420.063 149.85 420.063 149.849 441.23"/>
  <path id="svg_13" fill="#2f2e41" d="m151.24883,446.5492l-17.69456,-0.00066l0,-0.2238a6.8876,6.8876 0 0 1 6.88722,-6.88711l0.00044,0l10.80723,0.00044l-0.00033,7.11113z"/>
  <polygon id="svg_14" fill="#9e616a" points="169.309 435.789 164.236 437.882 153.748 419.313 161.234 416.223 169.309 435.789"/>
  <path id="svg_15" fill="#2f2e41" d="m172.63227,440.17203l-16.35634,6.75034l-0.08539,-0.20688a6.88756,6.88756 0 0 1 3.73863,-8.9938l0.0004,-0.00017l9.98991,-4.12285l2.71279,6.57336z"/>
  <path id="svg_16" fill="#2f2e41" d="m153.46436,282.04682s20.36206,9.64972 6.83261,53.85182l-1.02946,34.96981l-6.74837,64.28769l-10.98,-0.69935l-4.856,-61.88755l-16.186,-51.11662l3.212,-24.68933l29.75522,-14.71647z"/>
  <path id="svg_17" fill="#f9a826" d="m122.38807,303.28726l1.65576,-32.09473c-11.26025,-18.90918 0.281,-29.71191 1.21875,-30.541l10.31787,-15.0669l9.02735,-2.478a11.89523,11.89523 0 0 1 15.0437,11.5625l-0.40479,52.58691l-36.85864,16.03122z"/>
  <polygon id="svg_18" fill="#2f2e41" points="142.984 381.916 154.331 428.978 167.334 423.693 149.713 381.096 142.984 381.916"/>
  <path id="svg_19" fill="#9e616a" d="m125.68296,319.93366a5.71,5.71 0 0 0 2.55729,-8.37388l11.50486,-16.29311l-9.58505,-0.5492l-10.19519,15.35172a5.741,5.741 0 0 0 5.71809,9.86447z"/>
  <polygon id="svg_20" fill="#f9a826" points="129.675 241.325 134.705 276.81 120.497 303.566 132.386 311.008 152.869 280.727 144.292 237.823 129.675 241.325"/>
  <circle fill="#9e616a" r="15.18" cy="202.03381" cx="140.10743" data-name="Ellipse 360" id="aaba450f-0f04-490f-b553-501192395cc8"/>
  <path id="svg_21" fill="#2f2e41" d="m162.99598,258.63858c0.56714,-8.49255 4.12256,-16.44623 6.98877,-24.46057c2.866,-8.01441 5.09131,-16.737 2.92432,-24.968a38.37815,38.37815 0 0 0 -5.886,-11.79681c-4.7417,-6.87683 -10.78711,-13.27106 -18.62109,-16.16931c-7.834,-2.8982 -17.70655,-1.45343 -22.86035,5.12a12.7433,12.7433 0 0 0 -2.876,8.2041a9.149,9.149 0 0 0 4.14648,7.44147c1.43116,0.86621 3.13282,1.27271 4.43555,2.32208c1.30274,1.04944 2.01563,3.183 0.83057,4.36383l0.47314,0.233c4.24561,0.91491 6.61426,5.72711 6.57813,10.06994s-1.80225,8.45459 -2.89551,12.65772c-1.09326,4.20318 -1.41309,9.02362 1.11133,12.55767c2.50927,3.51355 7.35986,5.05939 9.1914,8.96949c2.499,5.33587 -2.03027,11.44433 -1.48681,17.3114c0.522,5.63263 5.80127,9.886 11.32617,11.10022c5.5249,1.21417 11.26318,0.06537 16.80224,-1.0827c-7.53732,-3.95374 -10.74948,-13.38104 -10.18234,-21.87353z"/>
  <path id="svg_22" fill="#9e616a" d="m807.59291,312.7327l0.74121,-24.66346l-3.29248,-22.93652l-4.92627,0.334l-4.145,24.134l4.63134,25.876a6.99547,6.99547 0 1 0 6.99122,-2.744l-0.00002,-0.00002z"/>
  <polygon id="svg_23" fill="#9e616a" points="806.969970703125,370.6009826660156 793.1619873046875,429.0580139160156 803.5659790039062,429.7969970703125 823.5059814453125,373.218994140625 806.969970703125,370.6009826660156 "/>
  <polygon id="svg_24" fill="#9e616a" points="831.583984375,366.7590026855469 850.6400146484375,423.72198486328125 859.8720092773438,418.8689880371094 845.2490234375,361.6009826660156 831.583984375,366.7590026855469 "/>
  <path id="svg_25" fill="#e4e4e4" d="m806.25178,317.69681s-6.61624,7.31635 4.80108,21.36014l-14.8037,77.54379l11,4l20,-52l18,45l14,-6l-19.12444,-68.54379l2.12444,-17.45621l-5.28735,-4.88583l-30.71003,0.9819z"/>
  <path id="svg_26" fill="#3f3d56" d="m819.99184,238.75681s-20.02166,7.84393 -18.02166,19.84393l4.9252,47.43587l-5.06565,16.45057s33.78386,5.42576 39.96215,-0.73034l1.1783,-52.1561l2.21294,-20.615l-10.70129,-4.329l-2.67,-3.96l-11.81999,-1.93993z"/>
  <polygon id="svg_27" fill="#3f3d56" points="805.0419921875,252.65200805664062 797.739990234375,269.0929870605469 808.5960083007812,273.2969970703125 805.0419921875,252.65200805664062 "/>
  <path id="svg_28" fill="#9e616a" d="m859.77552,319.56082l-8.80517,-47.004l-14.0083,-1.16992l3.94824,23.5957l9.53857,26.69861a7.0029,7.0029 0 1 0 9.32666,-2.12036l0,-0.00003z"/>
  <path id="svg_29" fill="#3f3d56" d="m829.2529,254.73066l8.079,22.93615l15.63832,-2.06607s3.42587,-21.23 -7.78706,-26.615l-15.93026,5.74492z"/>
  <path fill="#9e616a" d="m840.22382,221.26018c-0.40748,19.63512 -30.652,16.28216 -26.64422,-3.00847c3.08572,-15.35111 27.05627,-12.6226 26.64422,3.00847z" data-name="Path 1770" id="aadf75e6-ac14-4c0d-b07b-d38ba10ebdab"/>
  <path fill="#3f3d56" d="m832.85383,203.20018c-9.4821,1.61639 -24.16725,-2.18534 -23.879,12.66035c-0.97254,1.45384 -2.04149,3.04658 -1.35075,4.86972c3.34472,4.07892 5.09246,10.39583 9.45868,13.26085c3.89158,-0.02883 8.97148,0.51448 11.58125,-2.88061c1.10884,-2.78394 -0.853,-6.17778 0.81979,-8.79037c2.19295,-0.69977 4.33336,2.1073 5.19,-1.89047a5.43994,5.43994 0 0 1 2.23009,-5.08945c3.43362,-3.932 1.09378,-11.17753 -4.05006,-12.14002z" data-name="Path 1784" id="e2c3cfee-80d7-4301-b109-7608295bf7e0"/>
  <path id="svg_30" fill="#2f2e41" d="m792.46766,427.60137l16.35086,-0.00066l0.00066,0a10.42059,10.42059 0 0 1 10.42005,10.41988l0,0.33861l-26.77107,0.001l-0.0005,-10.75883z"/>
  <path id="svg_31" fill="#2f2e41" d="m846.63467,420.54322l15.98349,-3.44654l0.00065,-0.00014a10.42061,10.42061 0 0 1 12.382,7.98987l0.07136,0.331l-26.1696,5.64289l-2.2679,-10.51708z"/>
  <polygon id="svg_32" fill="#ffb6b6" points="621.563 299.657 626.846 299.657 629.359 279.281 621.562 279.281 621.563 299.657"/>
  <path id="svg_33" fill="#2f2e41" d="m620.21569,297.93222l10.40327,-0.00042l0.00042,0a6.63015,6.63015 0 0 1 6.62978,6.62967l0,0.21545l-17.03315,0.00063l-0.00032,-6.84533z"/>
  <polygon id="svg_34" fill="#ffb6b6" points="594.563 299.657 599.846 299.657 602.359 279.281 594.562 279.281 594.563 299.657"/>
  <path id="svg_35" fill="#2f2e41" d="m593.21569,297.93222l10.40327,-0.00042l0.00042,0a6.63015,6.63015 0 0 1 6.62978,6.62967l0,0.21545l-17.03315,0.00063l-0.00032,-6.84533z"/>
  <path id="svg_36" fill="#ffb6b6" d="m656.24916,72.60074a6,6 0 1 0 -11.54932,2.27905l-12.13965,19.20667l-7.55713,15.2301l6.23633,5.535l4.79932,-5.05115l15.69629,-31.3927a5.99665,5.99665 0 0 0 4.51416,-5.80697z"/>
  <path id="svg_37" fill="#ffb6b6" d="m599.24916,135.60074l-11.89942,-1.84424l-2.83472,21.52759l-15.44409,33.23413a6.003,6.003 0 1 0 8.2732,1.9248l16.1477,-29.15844l5.75733,-25.68384z"/>
  <path id="svg_38" fill="#2f2e41" d="m599.84326,171.46337s-10.46415,9.67623 -9.13442,34.00664l2.93141,37.58661l-0.73927,52.39445l10.74783,-0.84457l9.38977,-87.80608l9,36l-3.23087,47.956l10.35291,0.24022l10.878,-54.1962l-2.57832,-40.17392l-4.33117,-25.16315l-33.28587,0z"/>
  <path id="svg_39" fill="#e4e4e4" d="m611.03858,114.80043l-25,7l12.71159,38.08609l-1.9,14.57l38.54669,0.24969l-8.92708,-28.16167s5.00976,-10.30194 -0.71071,-17.523l-14.72049,-14.22111z"/>
  <path id="svg_40" fill="#e4e4e4" d="m608.03858,120.80043l3,-6s-0.09683,-1.50781 6.95158,-2.2539l8.27024,-8.21985l7.56979,7.54454l-12.79161,18.92921l-13,-10z"/>
  <path id="svg_41" fill="#e4e4e4" d="m596.03858,126.80043s-9,-10 -14,-5s-2.43641,20.89895 -2.43641,20.89895l15.57331,2.41656l0.8631,-18.31551z"/>
  <path fill="#ffb6b6" d="m600.60349,88.36107c15.32721,0.06879 15.32591,23.37334 -0.00072,23.44c-15.32649,-0.06879 -15.32519,-23.37333 0.00072,-23.44z" data-name="Ellipse 358" id="bf97ead5-a8ed-4eb0-acc5-869eed05cf08"/>
  <path id="svg_42" fill="#2f2e41" d="m602.30979,99.30643c2.07178,1.22006 4.22463,2.468 6.61469,2.72959s5.096,-0.74435 6.055,-2.94915a6.80354,6.80354 0 0 0 0.4695,-2.39647a15.93022,15.93022 0 0 0 -4.0325,-11.41526a14.44626,14.44626 0 0 0 -11.086,-4.68724c-3.96029,0.17215 -7.62,2.04685 -11.13425,3.88088c-3.23174,1.68659 -6.644,3.545 -8.4,6.73957c-2.602,4.73379 -0.70535,10.52951 -0.2,15.90759a29.96846,29.96846 0 0 1 -7.22483,22.29l21.80746,2.0663a25.52412,25.52412 0 0 0 7.9619,-0.08105a12.726,12.726 0 0 0 6.05225,-21.5879c-3.09541,-2.98007 -8.07337,-5.08984 -8.19565,-9.38489"/>
  <polygon id="svg_43" fill="#f9a826" points="0 152.075 79.881 93.598 79.249 98.601 0.249 157.601 0 152.075"/>
  <path fill="#f0f0f0" d="m416.94994,423.05805c22.02626,-0.09067 22.02646,4.771 -0.00053,4.68c-22.02573,0.09067 -22.02593,-4.77105 0.00053,-4.68z" data-name="Ellipse 365" id="e675ae52-c925-4d34-8b81-f405477c3ca7"/>
  <path fill="#f0f0f0" d="m95.94994,421.05805c22.02626,-0.09067 22.02646,4.771 -0.00053,4.68c-22.02573,0.09067 -22.02593,-4.77105 0.00053,-4.68z" data-name="Ellipse 365" id="e3c5ec81-3296-48b2-bdc0-fdf32bb949c4"/>
  <path fill="#f0f0f0" d="m711.94994,336.05805c22.02626,-0.09067 22.02646,4.771 -0.00053,4.68c-22.02573,0.09067 -22.02593,-4.77105 0.00053,-4.68z" data-name="Ellipse 365" id="a417f11e-12d9-4890-9c52-a0b47cfebf3d"/>
  <path id="svg_44" fill="#f0f0f0" d="m710.19092,332.50508c0.0448,-2.13446 -1.48663,-4.45325 -3.62146,-4.46759a3.77441,3.77441 0 0 0 -3.46887,3.16675a6.17425,6.17425 0 0 0 1.39587,4.753a18.30648,18.30648 0 0 0 3.80005,3.37915l0.37683,-1.37457a4.39653,4.39653 0 0 1 -0.8352,0.40967c1.14844,-1.79976 2.30798,-3.73195 2.35278,-5.86641z"/>
  <path id="svg_45" fill="#f0f0f0" d="m708.67334,337.96181a4.874,4.874 0 0 0 0.89716,-0.74286c-0.24683,0.04962 -0.49018,0.11548 -0.73773,0.16125l-0.15943,0.58161z"/>
  <path id="svg_46" fill="#f0f0f0" d="m724.70158,321.25343a7.31875,7.31875 0 0 0 -7.07617,-1.10046a8.54471,8.54471 0 0 0 -4.98059,5.27179c-0.77222,2.2951 -0.6131,4.78815 -0.988,7.18042a8.57141,8.57141 0 0 1 -2.0863,4.61377a48.20588,48.20588 0 0 0 11.08917,-3.65582c2.55572,-1.20819 5.20056,-2.87195 6.08716,-5.55628a6.411,6.411 0 0 0 -2.04527,-6.75342z"/>
  <path id="svg_47" fill="#f0f0f0" d="m417.19092,419.50508c0.0448,-2.13446 -1.48663,-4.45325 -3.62146,-4.46759a3.77441,3.77441 0 0 0 -3.46887,3.16675a6.17425,6.17425 0 0 0 1.39587,4.753a18.30648,18.30648 0 0 0 3.80005,3.37915l0.37683,-1.37457a4.39653,4.39653 0 0 1 -0.8352,0.40967c1.14844,-1.79976 2.30798,-3.73195 2.35278,-5.86641z"/>
  <path id="svg_48" fill="#f0f0f0" d="m415.67334,424.96181a4.874,4.874 0 0 0 0.89716,-0.74286c-0.24683,0.04962 -0.49018,0.11548 -0.73773,0.16125l-0.15943,0.58161z"/>
  <path id="svg_49" fill="#f0f0f0" d="m431.70158,408.25343a7.31875,7.31875 0 0 0 -7.07617,-1.10046a8.54471,8.54471 0 0 0 -4.98059,5.27179c-0.77222,2.2951 -0.6131,4.78815 -0.988,7.18042a8.57141,8.57141 0 0 1 -2.0863,4.61377a48.20588,48.20588 0 0 0 11.08917,-3.65582c2.55572,-1.20819 5.20056,-2.87195 6.08716,-5.55628a6.411,6.411 0 0 0 -2.04527,-6.75342z"/>
  <path id="svg_50" fill="#f0f0f0" d="m96.19092,417.50508c0.0448,-2.13446 -1.48663,-4.45325 -3.62146,-4.46759a3.77441,3.77441 0 0 0 -3.46887,3.16675a6.17425,6.17425 0 0 0 1.39587,4.753a18.30648,18.30648 0 0 0 3.8,3.37915l0.37683,-1.37457a4.39653,4.39653 0 0 1 -0.8352,0.40967c1.14849,-1.79976 2.30803,-3.73195 2.35283,-5.86641z"/>
  <path id="svg_51" fill="#f0f0f0" d="m94.67334,422.96181a4.874,4.874 0 0 0 0.89716,-0.74286c-0.24683,0.04962 -0.49018,0.11548 -0.73773,0.16125l-0.15943,0.58161z"/>
  <path id="svg_52" fill="#f0f0f0" d="m110.70158,406.25343a7.31875,7.31875 0 0 0 -7.07617,-1.10046a8.54471,8.54471 0 0 0 -4.98059,5.27179c-0.77222,2.2951 -0.6131,4.78815 -0.988,7.18042a8.57141,8.57141 0 0 1 -2.0863,4.61377a48.20588,48.20588 0 0 0 11.08917,-3.65582c2.55572,-1.20819 5.20056,-2.87195 6.08716,-5.55628a6.411,6.411 0 0 0 -2.04527,-6.75342z"/>
  <ellipse id="svg_53" fill="#f0f0f0" ry="7" rx="45" cy="444.60073" cx="834.24916"/>
 </g>

</svg>